<svg width="19" height="18" viewBox="0 0 19 18" fill="none" xmlns="http://www.w3.org/2000/svg">
<g clip-path="url(#clip0_269_148)">
<path fill-rule="evenodd" clip-rule="evenodd" d="M2.84229 8.08168C2.84229 4.92784 5.39897 2.37115 8.55281 2.37115C11.7066 2.37115 14.2633 4.92784 14.2633 8.08168C14.2633 11.2355 11.7066 13.7922 8.55281 13.7922C5.39897 13.7922 2.84229 11.2355 2.84229 8.08168ZM8.55281 0.371155C4.29441 0.371155 0.842285 3.82327 0.842285 8.08168C0.842285 12.3401 4.29441 15.7922 8.55281 15.7922C10.4524 15.7922 12.1916 15.1053 13.5354 13.9663L17.2495 17.5268C17.6481 17.909 18.2812 17.8957 18.6634 17.497C19.0456 17.0983 19.0322 16.4653 18.6335 16.0831L14.882 12.4866C15.7527 11.2379 16.2633 9.71943 16.2633 8.08168C16.2633 3.82327 12.8112 0.371155 8.55281 0.371155Z" fill="#FEFEFE"/>
</g>
<defs>
<clipPath id="clip0_269_148">
<rect width="18.0992" height="17.4338" fill="white" transform="translate(0.842285 0.371155)"/>
</clipPath>
</defs>
</svg>
